<svg xmlns="http://www.w3.org/2000/svg" viewBox="0 0 880 420" font-family="-apple-system,system-ui,sans-serif"><rect width="880" height="420" fill="#0a0a0a"/><text x="48" y="24" fill="#e5e5e5" font-size="14" font-weight="600">Accuracy by slice · same TiDB cluster · 4 architectures</text><line x1="48" y1="356" x2="856" y2="356" stroke="#262626" stroke-width="1"/><text x="40" y="360" fill="#737373" font-size="10" text-anchor="end">0%</text><line x1="48" y1="277" x2="856" y2="277" stroke="#262626" stroke-width="1"/><text x="40" y="281" fill="#737373" font-size="10" text-anchor="end">25%</text><line x1="48" y1="198" x2="856" y2="198" stroke="#262626" stroke-width="1"/><text x="40" y="202" fill="#737373" font-size="10" text-anchor="end">50%</text><line x1="48" y1="119" x2="856" y2="119" stroke="#262626" stroke-width="1"/><text x="40" y="123" fill="#737373" font-size="10" text-anchor="end">75%</text><line x1="48" y1="40" x2="856" y2="40" stroke="#262626" stroke-width="1"/><text x="40" y="44" fill="#737373" font-size="10" text-anchor="end">100%</text><rect x="56" y="261.2" width="35.2" height="94.8" fill="#525252" rx="2"/><text x="74.6" y="257.2" fill="#e5e5e5" font-size="9" text-anchor="middle">30</text><rect x="93.2" y="356" width="35.2" height="0" fill="#737373" rx="2"/><text x="111.80000000000001" y="352" fill="#e5e5e5" font-size="9" text-anchor="middle">0</text><rect x="130.4" y="261.2" width="35.2" height="94.8" fill="#a3a3a3" rx="2"/><text x="149" y="257.2" fill="#e5e5e5" font-size="9" text-anchor="middle">30</text><rect x="167.60000000000002" y="324.4" width="35.2" height="31.6" fill="#10b981" rx="2"/><text x="186.20000000000002" y="320.4" fill="#e5e5e5" font-size="9" text-anchor="middle">10</text><rect x="204.8" y="356" width="35.2" height="0" fill="#8b5cf6" rx="2"/><text x="223.4" y="352" fill="#e5e5e5" font-size="9" text-anchor="middle">0</text><text x="149" y="376" fill="#a3a3a3" font-size="11" text-anchor="middle">single_session</text><rect x="258" y="261.2" width="35.2" height="94.8" fill="#525252" rx="2"/><text x="276.6" y="257.2" fill="#e5e5e5" font-size="9" text-anchor="middle">30</text><rect x="295.2" y="324.4" width="35.2" height="31.6" fill="#737373" rx="2"/><text x="313.8" y="320.4" fill="#e5e5e5" font-size="9" text-anchor="middle">10</text><rect x="332.4" y="324.4" width="35.2" height="31.6" fill="#a3a3a3" rx="2"/><text x="351" y="320.4" fill="#e5e5e5" font-size="9" text-anchor="middle">10</text><rect x="369.6" y="324.4" width="35.2" height="31.6" fill="#10b981" rx="2"/><text x="388.20000000000005" y="320.4" fill="#e5e5e5" font-size="9" text-anchor="middle">10</text><rect x="406.8" y="356" width="35.2" height="0" fill="#8b5cf6" rx="2"/><text x="425.40000000000003" y="352" fill="#e5e5e5" font-size="9" text-anchor="middle">0</text><text x="351" y="376" fill="#a3a3a3" font-size="11" text-anchor="middle">multi_session</text><rect x="460" y="134.8" width="35.2" height="221.2" fill="#525252" rx="2"/><text x="478.6" y="130.8" fill="#e5e5e5" font-size="9" text-anchor="middle">70</text><rect x="497.2" y="134.8" width="35.2" height="221.2" fill="#737373" rx="2"/><text x="515.8" y="130.8" fill="#e5e5e5" font-size="9" text-anchor="middle">70</text><rect x="534.4" y="229.6" width="35.2" height="126.4" fill="#a3a3a3" rx="2"/><text x="553" y="225.6" fill="#e5e5e5" font-size="9" text-anchor="middle">40</text><rect x="571.6" y="292.8" width="35.2" height="63.2" fill="#10b981" rx="2"/><text x="590.2" y="288.8" fill="#e5e5e5" font-size="9" text-anchor="middle">20</text><rect x="608.8" y="356" width="35.2" height="0" fill="#8b5cf6" rx="2"/><text x="627.4" y="352" fill="#e5e5e5" font-size="9" text-anchor="middle">0</text><text x="553" y="376" fill="#a3a3a3" font-size="11" text-anchor="middle">temporal</text><rect x="662" y="166.4" width="35.2" height="189.6" fill="#525252" rx="2"/><text x="680.6" y="162.4" fill="#e5e5e5" font-size="9" text-anchor="middle">60</text><rect x="699.2" y="103.19999999999999" width="35.2" height="252.8" fill="#737373" rx="2"/><text x="717.8000000000001" y="99.19999999999999" fill="#e5e5e5" font-size="9" text-anchor="middle">80</text><rect x="736.4" y="103.19999999999999" width="35.2" height="252.8" fill="#a3a3a3" rx="2"/><text x="755" y="99.19999999999999" fill="#e5e5e5" font-size="9" text-anchor="middle">80</text><rect x="773.6" y="71.59999999999997" width="35.2" height="284.40000000000003" fill="#10b981" rx="2"/><text x="792.2" y="67.59999999999997" fill="#e5e5e5" font-size="9" text-anchor="middle">90</text><rect x="810.8" y="261.2" width="35.2" height="94.8" fill="#8b5cf6" rx="2"/><text x="829.4" y="257.2" fill="#e5e5e5" font-size="9" text-anchor="middle">30</text><text x="755" y="376" fill="#a3a3a3" font-size="11" text-anchor="middle">knowledge_update</text><rect x="48" y="396" width="10" height="10" fill="#525252" rx="2"/><text x="62" y="405" fill="#a3a3a3" font-size="10">raw+vec</text><rect x="188" y="396" width="10" height="10" fill="#737373" rx="2"/><text x="202" y="405" fill="#a3a3a3" font-size="10">progressive</text><rect x="328" y="396" width="10" height="10" fill="#a3a3a3" rx="2"/><text x="342" y="405" fill="#a3a3a3" font-size="10">hierarchical</text><rect x="468" y="396" width="10" height="10" fill="#10b981" rx="2"/><text x="482" y="405" fill="#a3a3a3" font-size="10">typed-facts</text><rect x="608" y="396" width="10" height="10" fill="#8b5cf6" rx="2"/><text x="622" y="405" fill="#a3a3a3" font-size="10">spo-supersede</text></svg>